<svg width="17" height="17" viewBox="0 0 17 17" fill="none"
    xmlns="http://www.w3.org/2000/svg">
    <path d="M16.5 8.8999C16.5 13.3182 12.9183 16.8999 8.5 16.8999C4.08171 16.8999 0.5 13.3182 0.5 8.8999C0.5 4.48161 4.08171 0.899902 8.5 0.899902C12.9183 0.899902 16.5 4.48161 16.5 8.8999ZM7.57464 13.1358L13.5101 7.20035C13.7117 6.99881 13.7117 6.672 13.5101 6.47045L12.7802 5.74055C12.5787 5.53897 12.2519 5.53897 12.0503 5.74055L7.20968 10.5811L4.94971 8.32116C4.74816 8.11961 4.42135 8.11961 4.21977 8.32116L3.48987 9.05106C3.28832 9.25261 3.28832 9.57942 3.48987 9.78097L6.84471 13.1358C7.04629 13.3374 7.37306 13.3374 7.57464 13.1358Z" fill="black"/>
</svg>
