<svg width="16" height="16" viewBox="0 0 16 16" fill="none" xmlns="http://www.w3.org/2000/svg">
    <path d="M16.0001 8.00027C16.0001 7.5984 15.7648 7.23715 15.4026 7.08027L12.9123 5.99964L15.4016 4.91932C15.7648 4.76213 16.0004 4.40088 16.0004 3.99932C16.0004 3.59775 15.7651 3.2365 15.4029 3.07994L8.58317 0.121485C8.21317 -0.0400779 7.78816 -0.0407029 7.41816 0.12086L0.598753 3.07962C0.235314 3.23681 0 3.59806 0 3.99963C0 4.40119 0.235314 4.76245 0.597503 4.91901L3.08814 5.99964L0.59844 7.07996C0.235314 7.23683 0 7.5984 0 8.00027C0 8.40153 0.235314 8.76309 0.597503 8.91965L3.08783 9.99997L0.598753 11.08C0.235314 11.2372 0 11.5984 0 12.0003C0 12.4015 0.235314 12.7631 0.597503 12.9197L7.41879 15.8787C7.60203 15.9587 7.7998 16 7.99973 16C8.19785 15.9994 8.39629 15.9594 8.58067 15.8794L15.401 12.9203C15.7641 12.7631 15.9998 12.4019 15.9998 12.0003C15.9998 11.5984 15.7645 11.2372 15.4023 11.0803L12.9123 9.99997L15.4013 8.91997C15.7648 8.76278 16.0001 8.40153 16.0001 8.00027ZM7.98348 1.49649L7.98441 1.49712H7.98254L7.98348 1.49649ZM8.00004 1.50368L13.7551 4.00025L8.0166 6.50308L2.2472 3.99963L8.00004 1.50368ZM13.756 12.0012L8.0166 14.5034L2.2472 12L4.97252 10.8175L7.4191 11.8787C7.60234 11.9587 7.80011 12 8.00004 12C8.19816 11.9994 8.3966 11.9594 8.58098 11.8794L11.0276 10.8178L13.756 12.0012ZM8.0166 10.5031L2.2472 7.99965L4.97284 6.81714L7.4191 7.8784C7.60234 7.95836 7.80011 7.99964 8.00004 7.99965C8.19816 7.99902 8.3966 7.95902 8.58098 7.87902L11.0276 6.81746L13.756 8.00121L8.0166 10.5031Z" fill="black" fill-opacity="0.5"/>
</svg>
