<svg width="16" height="16" viewBox="0 0 16 16" fill="none" xmlns="http://www.w3.org/2000/svg">
  <g clip-path="url(#clip0_6557_131186)">
    <path
      d="M15.2992 14.3004V6.15039C15.2992 5.55039 14.8992 5.15039 14.2992 5.15039H6.19922C5.59922 5.15039 5.19922 5.55039 5.19922 6.15039V14.3504C5.19922 14.9504 5.59922 15.3504 6.19922 15.3504H14.3992C14.8992 15.2504 15.2992 14.9004 15.2992 14.3004ZM13.2992 13.3004H7.19922V7.15039H13.3992V13.2504L13.2992 13.3004Z"
      fill="black" />
    <path
      d="M2.69922 2.7002H8.89922V3.2002H10.8992V1.7002C10.8992 1.1002 10.4992 0.700195 9.89922 0.700195H1.69922C1.09922 0.700195 0.699219 1.1002 0.699219 1.7002V9.9002C0.699219 10.5002 1.09922 10.9002 1.69922 10.9002H3.19922V8.9002H2.69922V2.7002Z"
      fill="black" />
  </g>
  <defs>
    <clipPath id="clip0_6557_131186">
      <rect width="16" height="16" fill="white" />
    </clipPath>
  </defs>
</svg>
  