<svg width="16" height="16" viewBox="0 0 16 16" fill="none" xmlns="http://www.w3.org/2000/svg">
  <path
    d="M15.3628 2.30078L13.6796 0.618308C12.8553 -0.206035 11.521 -0.20616 10.6965 0.618277L0.778433 10.4715L0.0102775 15.1276C-0.0733162 15.6344 0.365527 16.0733 0.87237 15.9897L5.52846 15.2215L15.3824 5.30349C16.2052 4.48065 16.213 3.15102 15.3628 2.30078ZM3.77012 9.43749L9.09071 4.1514L11.8485 6.90924L6.56249 12.2298V10.9375H5.06249V9.43749H3.77012ZM2.56662 14.3166L1.6834 13.4334L2.06278 11.1338L2.63777 10.5625H3.93749V12.0625H5.43749V13.3622L4.86618 13.9372L2.56662 14.3166ZM14.4099 4.33121L14.4083 4.3328L14.4067 4.3344L12.9058 5.84515L10.1548 3.09421L11.6656 1.59328L11.6671 1.59171L11.6687 1.59015C11.9545 1.30434 12.418 1.30081 12.7073 1.59012L14.3903 3.27306C14.699 3.58171 14.7009 4.04021 14.4099 4.33121Z"
    fill="black" />
</svg>
  