<svg width="16" height="15" viewBox="0 0 16 15" fill="none"
    xmlns="http://www.w3.org/2000/svg">
    <path d="M15.8199 12.3126C16.3326 13.2013 15.6891 14.3122 14.665 14.3122H1.33484C0.308813 14.3122 -0.331798 13.1996 0.179925 12.3126L6.84509 0.756254C7.35806 -0.132885 8.64287 -0.131274 9.15492 0.756254L15.8199 12.3126ZM8 9.92333C7.29431 9.92333 6.72223 10.4954 6.72223 11.2011C6.72223 11.9068 7.29431 12.4789 8 12.4789C8.7057 12.4789 9.27778 11.9068 9.27778 11.2011C9.27778 10.4954 8.7057 9.92333 8 9.92333ZM6.78687 5.33039L6.99292 9.10817C7.00256 9.28495 7.14873 9.42333 7.32576 9.42333H8.67426C8.85128 9.42333 8.99745 9.28495 9.00709 9.10817L9.21314 5.33039C9.22356 5.13945 9.07153 4.97889 8.88031 4.97889H7.11967C6.92845 4.97889 6.77645 5.13945 6.78687 5.33039Z" fill="#943E00"/>
</svg>
