<svg width="17" height="17" viewBox="0 0 17 17" fill="none"
    xmlns="http://www.w3.org/2000/svg">
    <path d="M16.5 8.39999C16.5 12.8193 12.918 16.4 8.5 16.4C4.08203 16.4 0.5 12.8193 0.5 8.39999C0.5 3.98332 4.08203 0.399994 8.5 0.399994C12.918 0.399994 16.5 3.98332 16.5 8.39999ZM8.5 10.0129C7.68048 10.0129 7.01613 10.6773 7.01613 11.4968C7.01613 12.3163 7.68048 12.9806 8.5 12.9806C9.31952 12.9806 9.98387 12.3163 9.98387 11.4968C9.98387 10.6773 9.31952 10.0129 8.5 10.0129ZM7.09119 4.67916L7.33048 9.06625C7.34168 9.27154 7.51142 9.43225 7.717 9.43225H9.283C9.48858 9.43225 9.65832 9.27154 9.66952 9.06625L9.90881 4.67916C9.9209 4.45741 9.74436 4.27096 9.52229 4.27096H7.47768C7.25561 4.27096 7.0791 4.45741 7.09119 4.67916Z" fill="#990000"/>
</svg>
