<svg width="11" height="11" viewBox="0 0 11 11" fill="none" xmlns="http://www.w3.org/2000/svg">
<path d="M10.8762 9.01435C11.2287 9.62535 10.7862 10.3891 10.0822 10.3891H0.917703C0.212309 10.3891 -0.228111 9.62416 0.123698 9.01435L4.706 1.06937C5.05867 0.458092 5.94197 0.4592 6.29401 1.06937L10.8762 9.01435ZM5.5 7.37174C5.01484 7.37174 4.62153 7.76505 4.62153 8.25021C4.62153 8.73538 5.01484 9.12869 5.5 9.12869C5.98517 9.12869 6.37848 8.73538 6.37848 8.25021C6.37848 7.76505 5.98517 7.37174 5.5 7.37174ZM4.66597 4.21409L4.80763 6.81132C4.81426 6.93285 4.91475 7.02799 5.03646 7.02799H5.96355C6.08526 7.02799 6.18575 6.93285 6.19237 6.81132L6.33404 4.21409C6.3412 4.08282 6.23668 3.97244 6.10521 3.97244H4.89477C4.76331 3.97244 4.65881 4.08282 4.66597 4.21409Z" fill="#55585D"/>
</svg>
