<svg width="16" height="16" viewBox="0 0 16 16" fill="none" xmlns="http://www.w3.org/2000/svg">
  <path
    d="M13.2506 2H9.85051C9.25049 2 8.95048 2.4 8.95048 2.9C8.95048 3.4 9.35049 3.8 9.85051 3.8H11.0505L5.4504 9.3C5.05039 9.7 5.05039 10.2 5.4504 10.5C5.85041 10.9 6.35042 10.9 6.65043 10.5L12.1506 5V6.2C12.1506 6.7 12.5506 7.1 13.0506 7.1C13.5506 7.1 13.9506 6.7 13.9506 6.2V2.8C13.9506 2.1 13.5506 2 13.2506 2Z"
    fill="black" />
  <path
    d="M11.9495 10.0002C11.4495 10.0002 11.0494 10.4002 11.0494 10.9002V12.3002H3.74926V5.0002H5.1493C5.74931 5.0002 6.04932 4.6002 6.04932 4.1002C6.04932 3.6002 5.74931 3.2002 5.2493 3.2002H2.84924C2.34923 3.2002 1.94922 3.6002 1.94922 4.1002V13.1002C1.94922 13.6002 2.34923 14.0002 2.84924 14.0002H11.8495C12.3495 14.0002 12.7495 13.6002 12.7495 13.1002V10.8002C12.8495 10.3002 12.4495 10.0002 11.9495 10.0002Z"
    fill="black" />
</svg>
  