<svg width="16" height="16" viewBox="0 0 16 16" fill="none" xmlns="http://www.w3.org/2000/svg">
  <path
    d="M14.6011 9.8998C15.4011 8.7998 15.4011 7.2998 14.6011 6.1998C13.7011 4.8998 11.601 2.7998 8.00096 2.7998C4.40087 2.7998 2.30082 4.8998 1.4008 6.1998C0.600776 7.2998 0.600776 8.7998 1.4008 9.8998C2.30082 11.1998 4.40087 13.2998 8.00096 13.2998C11.601 13.1498 13.7011 11.0498 14.6011 9.8998ZM13.1011 8.7498C12.2011 9.9498 10.601 11.3498 8.00096 11.3498C5.40089 11.3498 3.70085 9.9998 2.90083 8.7998C2.60083 8.2998 2.60083 7.6998 2.90083 7.1998C3.70085 5.9998 5.30089 4.5998 8.00096 4.5998C10.701 4.5998 12.3011 5.9998 13.1011 7.1998C13.5011 7.6998 13.5011 8.2998 13.1011 8.7498Z"
    fill="black" />
  <path
    d="M7.99966 9.89961C9.04902 9.89961 9.8997 9.04895 9.8997 7.99961C9.8997 6.95027 9.04902 6.09961 7.99966 6.09961C6.95029 6.09961 6.09961 6.95027 6.09961 7.99961C6.09961 9.04895 6.95029 9.89961 7.99966 9.89961Z"
    fill="black" />
</svg>
  