<svg width="80" height="80" viewBox="0 0 80 80" fill="none" xmlns="http://www.w3.org/2000/svg">
  <g clip-path="url(#clip0_2944_109882)">
    <path
      d="M79.4531 73.2656L60.4844 54.2969C60.125 53.9375 59.6563 53.75 59.1563 53.75H57.0937C62.0156 48.0469 65 40.625 65 32.5C65 14.5469 50.4531 0 32.5 0C14.5469 0 0 14.5469 0 32.5C0 50.4531 14.5469 65 32.5 65C40.625 65 48.0469 62.0156 53.75 57.0937V59.1563C53.75 59.6563 53.9531 60.125 54.2969 60.4844L73.2656 79.4531C74 80.1875 75.1875 80.1875 75.9219 79.4531L79.4531 75.9219C80.1875 75.1875 80.1875 74 79.4531 73.2656ZM32.5 57.5C18.6875 57.5 7.5 46.3125 7.5 32.5C7.5 18.6875 18.6875 7.5 32.5 7.5C46.3125 7.5 57.5 18.6875 57.5 32.5C57.5 46.3125 46.3125 57.5 32.5 57.5Z"
      fill="#8F8F8F"></path>
  </g>
  <defs>
    <clipPath id="clip0_2944_109882">
      <rect width="80" height="80" fill="white"></rect>
    </clipPath>
  </defs>
</svg>