<svg width="17" height="16" viewBox="0 0 17 16" fill="none" xmlns="http://www.w3.org/2000/svg">
<g clip-path="url(#clip0_5427_225627)">
<path fill-rule="evenodd" clip-rule="evenodd" d="M15.1591 8C15.1591 11.4226 12.3845 14.1972 8.96191 14.1972C5.5393 14.1972 2.76473 11.4226 2.76473 8C2.76473 4.57739 5.5393 1.80282 8.96191 1.80282C12.3845 1.80282 15.1591 4.57739 15.1591 8ZM16.9619 8C16.9619 12.4183 13.3802 16 8.96191 16C4.54364 16 0.961914 12.4183 0.961914 8C0.961914 3.58172 4.54364 0 8.96191 0C13.3802 0 16.9619 3.58172 16.9619 8ZM9.976 4.84507C9.976 5.40513 9.52198 5.85915 8.96191 5.85915C8.40185 5.85915 7.94783 5.40513 7.94783 4.84507C7.94783 4.28501 8.40185 3.83099 8.96191 3.83099C9.52198 3.83099 9.976 4.28501 9.976 4.84507ZM8.17318 7.88732C8.17318 7.38949 8.57676 6.98592 9.07459 6.98592C9.57242 6.98592 9.976 7.38949 9.976 7.88732V11.0423C9.976 11.5401 9.57242 11.9437 9.07459 11.9437C8.57676 11.9437 8.17318 11.5401 8.17318 11.0423V7.88732Z" fill="black"/>
</g>
<defs>
<clipPath id="clip0_5427_225627">
<rect width="16" height="16" fill="white" transform="translate(0.961914)"/>
</clipPath>
</defs>
</svg>
