<svg width="16" height="16" viewBox="0 0 16 16" fill="none" xmlns="http://www.w3.org/2000/svg">
  <g clip-path="url(#clip0_4828_8436)">
    <path
      d="M6.0015 12.9586C6.00184 13.1158 6.04844 13.2693 6.1355 13.4001L6.563 14.0424C6.69375 14.2401 6.99225 14.3994 7.229 14.3994H8.7715C9.00825 14.3994 9.30675 14.2401 9.4375 14.0424L9.86475 13.4001C9.94597 13.2665 9.99246 13.1148 10 12.9586V12.0001H6L6.0015 12.9586ZM7.98625 1.60012C5.436 1.60787 3.6 3.67512 3.6 6.00012C3.59851 7.06536 3.98572 8.09454 4.689 8.89462C5.102 9.36587 5.748 10.3501 5.99425 11.1806C5.99425 11.1876 5.996 11.1939 5.997 11.2001H10.003C10.003 11.1939 10.0048 11.1876 10.0058 11.1806C10.252 10.3501 10.898 9.36587 11.311 8.89462C12.0143 8.09454 12.4015 7.06536 12.4 6.00012C12.4 3.56587 10.4228 1.59237 7.98625 1.60012ZM8 4.00012C7.46975 4.00072 6.96139 4.21162 6.58644 4.58656C6.2115 4.96151 6.0006 5.46987 6 6.00012C6 6.10621 5.95786 6.20795 5.88284 6.28296C5.80783 6.35798 5.70609 6.40012 5.6 6.40012C5.49391 6.40012 5.39217 6.35798 5.31716 6.28296C5.24214 6.20795 5.2 6.10621 5.2 6.00012C5.20079 5.25776 5.49605 4.54603 6.02098 4.0211C6.54591 3.49617 7.25764 3.20091 8 3.20012C8.10609 3.20012 8.20783 3.24226 8.28284 3.31728C8.35786 3.39229 8.4 3.49403 8.4 3.60012C8.4 3.70621 8.35786 3.80795 8.28284 3.88296C8.20783 3.95798 8.10609 4.00012 8 4.00012ZM2.8 6.40012C2.8 6.24099 2.73679 6.08838 2.62426 5.97586C2.51174 5.86333 2.35913 5.80012 2.2 5.80012H0.6C0.44087 5.80012 0.288258 5.86333 0.175736 5.97586C0.0632141 6.08838 0 6.24099 0 6.40012C0 6.55925 0.0632141 6.71186 0.175736 6.82438C0.288258 6.93691 0.44087 7.00012 0.6 7.00012H2.2C2.35913 7.00012 2.51174 6.93691 2.62426 6.82438C2.73679 6.71186 2.8 6.55925 2.8 6.40012ZM15.4 5.80012H13.8C13.6409 5.80012 13.4883 5.86333 13.3757 5.97586C13.2632 6.08838 13.2 6.24099 13.2 6.40012C13.2 6.55925 13.2632 6.71186 13.3757 6.82438C13.4883 6.93691 13.6409 7.00012 13.8 7.00012H15.4C15.5591 7.00012 15.7117 6.93691 15.8243 6.82438C15.9368 6.71186 16 6.55925 16 6.40012C16 6.24099 15.9368 6.08838 15.8243 5.97586C15.7117 5.86333 15.5591 5.80012 15.4 5.80012ZM3.277 2.98062L1.8915 2.18062C1.82321 2.1395 1.74741 2.11241 1.66853 2.10092C1.58965 2.08942 1.50926 2.09376 1.43208 2.11369C1.35489 2.13361 1.28245 2.16871 1.21899 2.21694C1.15552 2.26517 1.1023 2.32557 1.06244 2.3946C1.02257 2.46363 0.996865 2.53991 0.986813 2.61899C0.976761 2.69807 0.982568 2.77835 1.00389 2.85516C1.02522 2.93197 1.06164 3.00376 1.11102 3.06634C1.1604 3.12891 1.22175 3.18102 1.2915 3.21962L2.677 4.01962C2.74529 4.06074 2.82109 4.08783 2.89997 4.09932C2.97885 4.11082 3.05924 4.10648 3.13642 4.08655C3.2136 4.06663 3.28605 4.03153 3.34951 3.9833C3.41298 3.93507 3.4662 3.87467 3.50606 3.80564C3.54593 3.73661 3.57164 3.66033 3.58169 3.58125C3.59174 3.50217 3.58593 3.42189 3.56461 3.34508C3.54328 3.26827 3.50686 3.19648 3.45748 3.1339C3.4081 3.07133 3.34675 3.01922 3.277 2.98062ZM14.7085 9.58062L13.323 8.78062C13.2547 8.7395 13.1789 8.71241 13.1 8.70092C13.0211 8.68942 12.9408 8.69376 12.8636 8.71369C12.7864 8.73361 12.714 8.76871 12.6505 8.81694C12.587 8.86517 12.5338 8.92557 12.4939 8.9946C12.4541 9.06363 12.4284 9.13991 12.4183 9.21899C12.4083 9.29807 12.4141 9.37835 12.4354 9.45516C12.4567 9.53197 12.4931 9.60376 12.5425 9.66634C12.5919 9.72891 12.6533 9.78102 12.723 9.81962L14.1085 10.6196C14.2461 10.6958 14.408 10.7148 14.5595 10.6728C14.711 10.6307 14.84 10.5309 14.9186 10.3947C14.9972 10.2585 15.0193 10.0969 14.98 9.9447C14.9407 9.79246 14.8432 9.66172 14.7085 9.58062ZM2.677 8.78062L1.2915 9.58062C1.22175 9.61922 1.1604 9.67133 1.11102 9.7339C1.06164 9.79648 1.02522 9.86827 1.00389 9.94508C0.982568 10.0219 0.976761 10.1022 0.986813 10.1813C0.996865 10.2603 1.02257 10.3366 1.06244 10.4056C1.1023 10.4747 1.15552 10.5351 1.21899 10.5833C1.28245 10.6315 1.35489 10.6666 1.43208 10.6866C1.50926 10.7065 1.58965 10.7108 1.66853 10.6993C1.74741 10.6878 1.82321 10.6607 1.8915 10.6196L3.277 9.81962C3.41171 9.73852 3.50919 9.60778 3.54849 9.45554C3.58778 9.30329 3.56574 9.1417 3.48711 9.00554C3.40848 8.86938 3.27954 8.76953 3.12804 8.72746C2.97653 8.6854 2.81457 8.70449 2.677 8.78062ZM13.0235 4.10012C13.1289 4.10032 13.2324 4.07254 13.3235 4.01962L14.709 3.21962C14.8437 3.13852 14.9412 3.00778 14.9805 2.85554C15.0198 2.70329 14.9977 2.5417 14.9191 2.40554C14.8405 2.26938 14.7115 2.16953 14.56 2.12746C14.4085 2.0854 14.2466 2.10449 14.109 2.18062L12.7235 2.98062C12.6092 3.04669 12.5198 3.14862 12.4693 3.27062C12.4188 3.39263 12.41 3.52788 12.4441 3.65543C12.4783 3.78297 12.5536 3.89568 12.6584 3.97608C12.7631 4.05648 12.8915 4.10008 13.0235 4.10012Z"
      fill="black" />
  </g>
  <defs>
    <clipPath id="clip0_4828_8436">
      <rect width="16" height="16" fill="white" />
    </clipPath>
  </defs>
</svg>
  