<svg width="16" height="16" viewBox="0 0 16 16" fill="none" xmlns="http://www.w3.org/2000/svg">
  <path fill-rule="evenodd" clip-rule="evenodd"
    d="M9.54348 1.54348C9.54348 0.967181 9.0763 0.5 8.5 0.5C7.9237 0.5 7.45652 0.967181 7.45652 1.54348V7.45652L1.54348 7.45652C0.967181 7.45652 0.5 7.9237 0.5 8.5C0.5 9.0763 0.967181 9.54348 1.54348 9.54348H7.45652V15.4565C7.45652 16.0328 7.9237 16.5 8.5 16.5C9.0763 16.5 9.54348 16.0328 9.54348 15.4565V9.54348H15.4565C16.0328 9.54348 16.5 9.0763 16.5 8.5C16.5 7.9237 16.0328 7.45652 15.4565 7.45652L9.54348 7.45652V1.54348Z"
    fill="black" fill-opacity="0.62" />
</svg>
  