<svg width="17" height="16" viewBox="0 0 17 16" fill="none" xmlns="http://www.w3.org/2000/svg">
<path d="M15.9619 8.8V7.2L13.9619 6.8C13.8619 6.3 13.6619 5.9 13.3619 5.4L14.4619 3.65L13.2619 2.45L11.5619 3.55C11.1619 3.25 10.6619 3.05 10.2619 2.95L9.76191 0.949997H8.16191L7.66191 2.95C7.26191 3.05 6.76191 3.25 6.36191 3.55L4.56191 2.5L3.46191 3.6L4.56191 5.3C4.26191 5.8 4.06191 6.3 3.96191 6.7L1.96191 7.2V8.9L3.96191 9.3C4.06191 9.8 4.26191 10.2 4.56191 10.7L3.46191 12.4L4.66191 13.6L6.36191 12.5C6.76191 12.7 7.26191 13 7.76191 13.1L8.16191 15.1H9.86191L10.2619 13.1C10.7619 13 11.1619 12.8 11.6619 12.5L13.3619 13.6L14.5619 12.4L13.4619 10.7C13.6619 10.3 13.9619 9.8 14.0619 9.3L15.9619 8.8ZM8.96191 10.3C7.66191 10.3 6.66191 9.3 6.66191 8C6.66191 6.7 7.66191 5.7 8.96191 5.7C10.2619 5.7 11.2619 6.7 11.2619 8C11.2619 9.3 10.2619 10.3 8.96191 10.3Z" fill="black"/>
</svg>
