<svg width="12" height="13" viewBox="0 0 12 13" fill="none" xmlns="http://www.w3.org/2000/svg">
  <path
    d="M6 0.5C2.68548 0.5 0 3.18548 0 6.5C0 9.81452 2.68548 12.5 6 12.5C9.31452 12.5 12 9.81452 12 6.5C12 3.18548 9.31452 0.5 6 0.5ZM8.94194 8.075C9.05564 8.18871 9.05564 8.37258 8.94194 8.48629L7.98387 9.44194C7.87016 9.55564 7.68629 9.55564 7.57258 9.44194L6 7.85484L4.425 9.44194C4.31129 9.55564 4.12742 9.55564 4.01371 9.44194L3.05806 8.48387C2.94435 8.37016 2.94435 8.18629 3.05806 8.07258L4.64516 6.5L3.05806 4.925C2.94435 4.81129 2.94435 4.62742 3.05806 4.51371L4.01613 3.55565C4.12984 3.44194 4.31371 3.44194 4.42742 3.55565L6 5.14516L7.575 3.55806C7.68871 3.44435 7.87258 3.44435 7.98629 3.55806L8.94436 4.51613C9.05806 4.62984 9.05806 4.81371 8.94436 4.92742L7.35484 6.5L8.94194 8.075Z"
    fill="black" />
</svg>
  