<svg width="16" height="16" viewBox="0 0 16 16" fill="none" xmlns="http://www.w3.org/2000/svg">
  <path
    d="M8.05005 8.80078C8.60233 8.80078 9.05005 8.35307 9.05005 7.80078C9.05005 7.2485 8.60233 6.80078 8.05005 6.80078C7.49776 6.80078 7.05005 7.2485 7.05005 7.80078C7.05005 8.35307 7.49776 8.80078 8.05005 8.80078Z"
    fill="black" />
  <path
    d="M2.3999 8.00039L5.8499 4.55039C6.1999 4.20039 6.1999 3.70039 5.8499 3.35039C5.4999 3.00039 4.9999 3.00039 4.6499 3.35039L0.599902 7.40039C0.499902 7.55039 0.399902 7.80039 0.399902 8.00039C0.399902 8.20039 0.499902 8.45039 0.649902 8.60039L4.6999 12.6504C4.8499 12.8004 5.0999 12.9004 5.2999 12.9004C5.4999 12.9004 5.7499 12.8004 5.8999 12.6504C6.0499 12.5004 6.1499 12.3004 6.1499 12.0504C6.1499 11.8504 6.0499 11.6004 5.8999 11.4504L2.3999 8.00039Z"
    fill="black" />
  <path
    d="M5.3999 8.80078C5.95219 8.80078 6.3999 8.35307 6.3999 7.80078C6.3999 7.2485 5.95219 6.80078 5.3999 6.80078C4.84762 6.80078 4.3999 7.2485 4.3999 7.80078C4.3999 8.35307 4.84762 8.80078 5.3999 8.80078Z"
    fill="black" />
  <path
    d="M10.75 8.80078C11.3023 8.80078 11.75 8.35307 11.75 7.80078C11.75 7.2485 11.3023 6.80078 10.75 6.80078C10.1977 6.80078 9.75 7.2485 9.75 7.80078C9.75 8.35307 10.1977 8.80078 10.75 8.80078Z"
    fill="black" />
  <path
    d="M15.3499 7.39961L11.2999 3.34961C11.1499 3.19961 10.8999 3.09961 10.6999 3.09961C10.4999 3.09961 10.2499 3.19961 10.0999 3.34961C9.9499 3.49961 9.8499 3.69961 9.8499 3.94961C9.8499 4.14961 9.9499 4.39961 10.0999 4.54961L13.5499 7.99961L10.0999 11.4496C9.7499 11.7996 9.7499 12.2996 10.0999 12.6496C10.2499 12.7996 10.4499 12.8996 10.6999 12.8996C10.8999 12.8996 11.1499 12.7996 11.2999 12.6496L15.3499 8.59961C15.4999 8.44961 15.5999 8.24961 15.5999 7.99961C15.5999 7.79961 15.4999 7.54961 15.3499 7.39961Z"
    fill="black" />
</svg>
  