<svg width="16" height="16" viewBox="0 0 16 16" fill="none" xmlns="http://www.w3.org/2000/svg">
  <rect x="5.20898" y="0.5" width="6.27871" height="2.08696" rx="1.04348" fill="black"
    fill-opacity="0.62" />
  <rect x="8.34863" y="6.06525" width="6.95652" height="2.35451" rx="1.17726"
    transform="rotate(90 8.34863 6.06525)" fill="black" fill-opacity="0.62" />
  <rect x="11.4873" y="6.06519" width="6.95652" height="2.35451" rx="1.17726"
    transform="rotate(90 11.4873 6.06519)" fill="black" fill-opacity="0.62" />
  <rect x="0.5" y="3.28259" width="15.6968" height="2.08696" rx="1.04348" fill="black"
    fill-opacity="0.62" />
  <path
    d="M4.81643 5.36957L2.46191 5.36957L2.46192 14.413C2.46192 14.413 2.46192 15.1087 3.24675 15.8044C4.03159 16.5 4.42401 16.5 4.42401 16.5L12.2724 16.5C12.2724 16.5 13.0572 16.5 13.8421 15.8043C14.6269 15.1087 14.6269 14.413 14.6269 14.413L14.6269 5.36957L12.2724 5.36957L12.2724 14.413L4.81643 14.413L4.81643 5.36957Z"
    fill="black" fill-opacity="0.62" />
</svg>
  